# xmcd CD database file
#
# Track frame offsets:
#	150
#	20080
#	35067
#
# Disc length: 713 seconds
#
# Revision: 0
# Processed by: cddbd v1.4PL0 Copyright (c) Steve Scherf et al.
# Submitted via: Feurio! 1.65 - http://www.feurio.com
#
DISCID=2202c703
DTITLE=Dolly Parton (Duet with Smokey Robinson) - I know you by heart
DYEAR=1987
DGENRE=Country
TTITLE0=I know you by heart
TTITLE1=Could I have your autograph
TTITLE2=More than I can say
EXTD=
EXTT0=
EXTT1=
EXTT2=
PLAYORDER=
